<svg width="140px" height="135px" viewBox="0 0 140 135" version="1.1" xmlns="http://www.w3.org/2000/svg" xmlns:xlink="http://www.w3.org/1999/xlink">
    <!-- Generator: Sketch 48.2 (47327) - http://www.bohemiancoding.com/sketch -->
    <desc>Created with Sketch.</desc>
    <defs></defs>
    <g id="Module-02-Templates" stroke="none" stroke-width="1" fill="none" fill-rule="evenodd">
        <g id="Landing-Copy" transform="translate(-697.000000, -271.000000)">
            <g id="Group-4" transform="translate(697.000000, 271.000000)">
                <g id="Page-1">
                    <polygon id="Fill-7" fill="#51E3C1" points="67 21 80 21 80 0 67 0"></polygon>
                    <polygon id="Fill-8" fill="#51E3C1" points="67 135 80 135 80 114 67 114"></polygon>
                    <polygon id="Fill-9" fill="#51E3C1" points="114 75 140 75 140 62 114 62"></polygon>
                    <polygon id="Fill-10" fill="#51E3C1" points="0 75 26 75 26 62 0 62"></polygon>
                    <g id="Group-23">
                        <path d="M72.0116783,52.4939844 C65.9275957,52.4939844 60.9827875,57.3881569 60.9827875,63.4040335 C60.9827875,69.4140064 65.9275957,74.3081788 72.0116783,74.3081788 C78.0897961,74.3081788 83.0346043,69.4140064 83.0346043,63.4040335 C83.0346043,57.3881569 78.0897961,52.4939844 72.0116783,52.4939844 Z M72.0116783,85.6964281 C59.5929921,85.6964281 49.4886433,75.6955498 49.4886433,63.4040335 C49.4886433,51.1125172 59.5929921,41.1057352 72.0116783,41.1057352 C84.4303645,41.1057352 94.5347133,51.1125172 94.5347133,63.4040335 C94.5347133,75.6955498 84.4303645,85.6964281 72.0116783,85.6964281 Z" id="Fill-11" fill="#51E3C1"></path>
                        <path d="M102.203043,105.615533 C99.8171285,105.615533 97.5862983,104.133703 96.7631577,101.778124 C93.3751588,92.0015863 83.658521,85.6964281 72.0092924,85.6964281 C60.3600637,85.6964281 50.643426,92.0015863 47.2554271,101.778124 C46.223519,104.747688 42.948851,106.318074 39.9485632,105.30854 C36.9482755,104.287199 35.3497126,101.051968 36.3756559,98.0765 C41.3144994,83.8603755 55.624023,74.3081788 72.0092924,74.3081788 C88.3945618,74.3081788 102.71005,83.8603755 107.642929,98.0765 C108.674837,101.051968 107.070309,104.287199 104.070022,105.30854 C103.455648,105.51517 102.823381,105.615533 102.203043,105.615533" id="Fill-13" fill="#51E3C1"></path>
                        <path d="M72.1166586,27.5295724 C49.4266095,27.5295724 30.9715591,45.8015431 30.9715591,68.2533378 C30.9715591,90.7169398 49.4266095,108.983007 72.1166586,108.983007 C94.8126724,108.983007 113.261758,90.7169398 113.261758,68.2533378 C113.261758,45.8015431 94.8126724,27.5295724 72.1166586,27.5295724 M72.1166586,119.845826 C43.3842804,119.845826 20.0023161,96.7032979 20.0023161,68.2533378 C20.0023161,39.815185 43.3842804,16.6726567 72.1166586,16.6726567 C100.855001,16.6726567 124.236966,39.815185 124.236966,68.2533378 C124.236966,96.7032979 100.855001,119.845826 72.1166586,119.845826" id="Fill-15" fill="#FFFFFF"></path>
                    </g>
                </g>
            </g>
        </g>
    </g>
</svg>
