<?xml version="1.0" encoding="iso-8859-1"?>
<!-- Generator: Adobe Illustrator 19.0.0, SVG Export Plug-In . SVG Version: 6.00 Build 0)  -->
<svg version="1.1" id="Capa_1" xmlns="http://www.w3.org/2000/svg" xmlns:xlink="http://www.w3.org/1999/xlink" x="0px" y="0px"
	 viewBox="0 0 60 60" style="enable-background:new 0 0 60 60;" xml:space="preserve">
<g>
	<g>
		<path d="M52.6,8.2C52.6,8.2,52.5,8.2,52.6,8.2c-0.1-0.1-0.1-0.1-0.2-0.1c0,0,0,0-0.1,0c0,0,0,0-0.1,0s-0.2,0-0.3,0l0,0h-35
			c-0.2,0-0.4,0.1-0.6,0.2l-8.8,5.9c-0.1,0.1-0.3,0.1-0.4,0.3c-0.3,0.2-0.3,0.6-0.2,1V51c0,0.6,0.4,1,1,1h36c0.3,0,0.6-0.1,0.7-0.3
			l7.9-5.9c0.3-0.2,0.4-0.5,0.4-0.8V9C53,8.7,52.9,8.4,52.6,8.2z M17.3,10H49l0,0l-5.3,4H11.3L17.3,10z M9,16h34v34H9V16z M51,44.5
			L45,49V15.5l6-4.5V44.5z"/>
		<rect x="11" y="18" width="2" height="2"/>
		<rect x="11" y="46" width="2" height="2"/>
		<rect x="39" y="46" width="2" height="2"/>
		<rect x="39" y="18" width="2" height="2"/>
		<path d="M36,37.4c0.1-0.1,0.1-0.3,0.2-0.4H39c0.6,0,1-0.4,1-1v-6c0-0.6-0.4-1-1-1h-2.8c-0.1-0.1-0.1-0.3-0.2-0.4l2-1.8
			c0.2-0.2,0.3-0.4,0.3-0.7c0-0.3-0.1-0.5-0.3-0.7l-4.2-4.2c-0.4-0.4-1-0.4-1.4,0l-1.9,1.9c-0.2-0.1-0.3-0.1-0.4-0.2V20
			c0-0.6-0.4-1-1-1h-6c-0.6,0-1,0.4-1,1v2.7c-0.1,0.1-0.3,0.1-0.4,0.2L19.8,21c-0.2-0.2-0.4-0.3-0.7-0.3c-0.3,0-0.5,0.1-0.7,0.3
			l-4.2,4.2c-0.2,0.2-0.3,0.4-0.3,0.7c0,0.3,0.1,0.5,0.3,0.7l1.9,1.9c-0.1,0.2-0.1,0.3-0.2,0.4H13c-0.6,0-1,0.4-1,1v6
			c0,0.6,0.4,1,1,1h2.8c0.1,0.1,0.1,0.3,0.2,0.4l-1.9,1.9c-0.2,0.2-0.3,0.4-0.3,0.7c0,0.3,0.1,0.5,0.3,0.7l4.2,4.2
			c0.4,0.4,1,0.4,1.4,0l1.9-1.9c0.2,0.1,0.3,0.1,0.4,0.2V46c0,0.6,0.4,1,1,1h6c0.6,0,1-0.4,1-1v-2.8c0.1-0.1,0.3-0.1,0.4-0.2
			l1.9,1.9c0.4,0.4,1,0.4,1.4,0l4.2-4.2c0.2-0.2,0.3-0.4,0.3-0.7s-0.1-0.5-0.3-0.7L36,37.4z M33,42.8l-1.7-1.7
			c-0.2-0.2-0.4-0.3-0.7-0.3c-0.2,0-0.4,0.1-0.6,0.2s-1,0.4-1.2,0.5c-0.5,0.1-0.8,0.5-0.8,1V45h-4v-2.5c0-0.3-0.1-0.5-0.3-0.7
			c-0.2-0.3-1.9-1-2.3-1c-0.3,0-0.5,0.1-0.7,0.3L19,42.8L16.2,40l1.7-1.7c0.2-0.2,0.3-0.4,0.3-0.7c0-0.2-0.1-0.4-0.2-0.6
			s-0.4-1-0.5-1.2c-0.1-0.5-0.5-0.8-1-0.8H14v-4h2.5c0.3,0,0.5-0.1,0.7-0.3c0.3-0.2,1-1.9,1-2.3c0-0.3-0.1-0.5-0.3-0.7L16.2,26
			l2.8-2.8l1.7,1.7c0.2,0.2,0.4,0.3,0.7,0.3c0.2,0,0.4-0.1,0.6-0.2s1-0.4,1.2-0.5c0.5-0.1,0.8-0.5,0.8-1V21h4v2.5
			c0,0.3,0.1,0.5,0.3,0.7c0.2,0.3,1.9,1,2.3,1c0.3,0,0.5-0.1,0.7-0.3l1.7-1.7l2.8,2.8l-1.7,1.7c-0.2,0.2-0.3,0.4-0.3,0.7
			c0,0.2,0.1,0.4,0.2,0.6s0.4,1,0.5,1.2c0.1,0.5,0.5,0.8,1,0.8H38v4h-2.5c-0.5,0-0.9,0.4-1,0.8c0,0.2-0.4,1-0.5,1.2
			s-0.2,0.4-0.2,0.6c0,0.3,0.1,0.5,0.3,0.7l1.7,1.7L33,42.8z"/>
		<path d="M26,29c-2.2,0-4,1.8-4,4s1.8,4,4,4s4-1.8,4-4S28.2,29,26,29z M26,35c-1.1,0-2-0.9-2-2s0.9-2,2-2s2,0.9,2,2S27.1,35,26,35z
			"/>
		<path d="M59.7,3.3l-3-3l-1.4,1.4L56.6,3H8v2h48.6l-1.3,1.3l1.4,1.4l3-3C60.1,4.3,60.1,3.7,59.7,3.3z"/>
		<rect y="3" width="2" height="2"/>
		<rect x="4" y="3" width="2" height="2"/>
		<path d="M4.7,53.7l-1.4-1.4l-3,3c-0.4,0.4-0.4,1,0,1.4l3,3l1.4-1.4L3.4,57H52v-2H3.4L4.7,53.7z"/>
		<rect x="58" y="55" width="2" height="2"/>
		<rect x="54" y="55" width="2" height="2"/>
	</g>
</g>
<g>
</g>
<g>
</g>
<g>
</g>
<g>
</g>
<g>
</g>
<g>
</g>
<g>
</g>
<g>
</g>
<g>
</g>
<g>
</g>
<g>
</g>
<g>
</g>
<g>
</g>
<g>
</g>
<g>
</g>
</svg>
