<svg width="162px" height="164px" viewBox="0 0 162 164" version="1.1" xmlns="http://www.w3.org/2000/svg" xmlns:xlink="http://www.w3.org/1999/xlink">
    <desc>Created with Sketch.</desc>
    <defs>
        <polygon id="path-1" points="0 0.13887 0 119.056337 44.43301 119.056337 44.43301 0.13887 0 0.13887"></polygon>
        <polygon id="path-3" points="11.67 0.8498 11.67 12.0878 0.4332 12.0878 0.4332 0.8498 11.67 0.8498"></polygon>
    </defs>
    <g id="Module-02-Templates" stroke="none" stroke-width="1" fill="none" fill-rule="evenodd">
        <g id="Landing-Copy" transform="translate(-1248.000000, -1204.000000)">
            <g id="Group-2-Copy" transform="translate(1358.676190, 1279.676190) rotate(-225.000000) translate(-1358.676190, -1279.676190) translate(1167.176190, 1207.176190)">
                <g id="Page-1" transform="translate(214.000000, 75.000000) rotate(-180.000000) translate(-214.000000, -75.000000) translate(151.000000, 5.000000)">
                    <path d="M1.99755987,89.4999708 L11.492587,118.294453 L39.8127324,138.082534 L74.7506858,138.003317 L107.338808,120.402852 L119.024839,87.9074994 L119.000404,2.99465162 L85.0133787,2.99465162 L85.0133787,79.5388999 L81.6433872,98.85574 C81.5965535,99.1462035 81.4153274,99.4021364 81.1445063,99.5544774 L58.9717954,112.054565 L58.5849082,112.127689 C58.4179358,112.127689 58.2509634,112.087065 58.1043535,112.007847 L42.7571479,103.872837 C42.4924356,103.734715 42.3051007,103.484875 42.2480858,103.19035 L37.4466116,80.2213877 L37.4242128,2.99465162 L1.99755987,2.99465162 L1.99755987,89.4999708 Z M39.2486916,140 L38.8088619,139.817191 L9.90431314,119.525368 L9.64774582,119.098813 L0.0468337176,89.902151 L0,1.9952946 C0,1.43874211 0.437793447,1 0.997761809,1 L38.4260472,1 C38.9880518,1 39.4258452,1.43874211 39.4258452,1.9952946 L39.4258452,80.0142039 L44.1499419,102.52208 L58.7681706,110.096475 L79.9227572,97.9477876 L83.0239638,79.3642156 L83.0117463,1.9952946 C83.0117463,1.43874211 83.451576,1 84.0135806,1 L120.002238,1 C120.562207,1 121,1.43874211 121,1.9952946 L121,88.1532762 L108.892466,121.676423 L108.481144,122.060323 L75.2821466,139.93297 L74.8972957,140 L39.2486916,140 Z" id="Fill-1" fill="#82DBE1"></path>
                    <g id="Group-5" transform="translate(0.000000, 1.000000)">
                        <mask id="mask-2" fill="white">
                            <use xlink:href="#path-1"></use>
                        </mask>
                        <g id="Clip-4"></g>
                        <path d="M25.6144091,95.5652367 L37.4412273,79.14607 L20.9466818,44.88237 L2.36577273,88.2127033 L25.6144091,95.5652367 Z M13.7753182,115.439037 L40.7221364,102.44197 L26.4019091,97.90967 L13.7753182,115.439037 Z M10.6478182,119.056337 C10.3491818,119.056337 10.0689545,118.92417 9.87872727,118.700503 C9.58009091,118.342637 9.55963636,117.83837 9.83577273,117.46627 L24.3830455,97.27527 L0.700772727,89.7865033 C0.430772727,89.7011033 0.209863636,89.5059033 0.0932727273,89.2517367 C-0.0294545455,88.98537 -0.0315,88.68647 0.0850909091,88.4323033 L19.8625909,42.30207 L0.101454545,1.57643667 C-0.0151363636,1.34057 -0.0335454545,1.06607 0.0564545455,0.813936667 C0.146454545,0.55977 0.330545455,0.35847 0.578045455,0.244603333 L0.663954545,0.203936667 L1.01372727,0.149036667 C1.40440909,0.149036667 1.75827273,0.374736667 1.91781818,0.72447 L20.8382727,40.0247367 L37.6805455,0.75497 C37.8278182,0.391003333 38.196,0.13887 38.5989545,0.13887 C39.2453182,0.332036667 39.4375909,0.527236667 39.5378182,0.77327 C39.636,1.02133667 39.6339545,1.29380333 39.5275909,1.53983667 L21.9203182,42.60707 L39.5091818,78.81667 C39.6666818,79.13997 39.636,79.5283367 39.4253182,79.82927 L27.6312273,96.1996367 L43.7330455,101.291103 C44.1278182,101.41717 44.3998636,101.76487 44.4305455,102.177637 C44.4591818,102.578203 44.2362273,102.96657 43.8680455,103.145503 L11.0016818,118.999403 L10.6478182,119.056337 Z" id="Fill-3" fill="#82DBE1" mask="url(#mask-2)"></path>
                    </g>
                    <path d="M76.7883396,128.070213 L105.620144,120.523419 L92.5280069,96.3041838 L80.8465384,99.4537614 L76.7883396,128.070213 Z M73.6557659,136.00918 L74.3994995,130.75853 L71.1052446,131.624156 L73.6557659,136.00918 Z M41.3235628,137.354355 L68.0656375,130.354165 L57.972687,112.978657 L41.3235628,137.354355 Z M38.9791851,140 C38.6719908,140 38.3850066,139.847601 38.1849261,139.583443 C37.9383622,139.217686 37.9403832,138.758457 38.178863,138.423179 L57.2228904,110.54637 C57.4088238,110.286276 57.7321862,110.113557 58.0312965,110.113557 C58.4193314,110.127781 58.7346098,110.316756 58.9003331,110.611394 L70.0664427,129.827881 L74.6986098,128.616817 L78.9690152,98.523112 C79.0195406,98.1350028 79.3004617,97.8058211 79.6864756,97.6960939 L91.5478145,94.4977487 L82.4108043,77.5936614 C82.2855013,77.3559191 82.2572071,77.085665 82.3279426,76.8336988 C82.4027202,76.5756366 82.5745065,76.3602462 82.8089443,76.2342631 L82.903932,76.1814315 L83.2818619,76.1204719 C83.6456446,76.1204719 83.9811332,76.3155425 84.1569615,76.6305002 L93.5263885,93.9653685 L117.645185,87.458951 L82.3643209,2.32079057 C82.1581773,1.80873023 82.3986782,1.2235184 82.903932,1.01219191 C82.9948777,1.00406397 83.0797603,1 83.1585799,1 C83.7608425,1 84.0619738,1.2235184 84.2034448,1.55270006 L119.924891,87.7474929 C120.034025,88.015715 120.02392,88.3144169 119.896596,88.572479 C119.773314,88.8244452 119.542919,89.0154519 119.270082,89.0926673 L94.5065809,95.7718036 L107.974627,120.690042 C108.116098,120.960296 108.132266,121.275254 108.015047,121.559732 C107.887723,121.848274 107.647223,122.055536 107.356196,122.136815 L76.4851873,130.218022 L75.2200318,139.134374 C75.1634433,139.552963 74.8461439,139.894337 74.4298148,139.975616 C74.4055626,139.975616 74.3833314,139.977648 74.3611002,139.977648 C73.8558464,139.977648 73.5486521,139.792737 73.3809078,139.502164 L69.1064604,132.148408 L39.2439381,139.963424 L38.9791851,140 Z" id="Fill-6" fill="#82DBE1"></path>
                    <g id="Group-10" transform="translate(114.000000, 82.000000)">
                        <mask id="mask-4" fill="white">
                            <use xlink:href="#path-3"></use>
                        </mask>
                        <g id="Clip-9"></g>
                        <path d="M6.0512,12.0878 C2.9552,12.0878 0.4332,9.5658 0.4332,6.4678 C0.4332,3.3718 2.9552,0.8498 6.0512,0.8498 C9.1492,0.8498 11.6712,3.3718 11.6712,6.4678 C11.6712,9.5658 9.1492,12.0878 6.0512,12.0878" id="Fill-8" fill="#82DBE1" mask="url(#mask-4)"></path>
                    </g>
                    <path d="M84.4990099,7 C82.5683168,7 81,5.42970297 81,3.4990099 C81,1.56831683 82.5683168,0 84.4990099,0 C86.4277228,0 88,1.56831683 88,3.4990099 C88,5.42970297 86.4277228,7 84.4990099,7" id="Fill-11" fill="#82DBE1"></path>
                    <path d="M84,82 C82.3452545,82 81,80.655208 81,78.9989687 C81,77.3468546 82.3452545,76 84,76 C85.6547455,76 87,77.3468546 87,78.9989687 C87,80.655208 85.6547455,82 84,82" id="Fill-13" fill="#82DBE1"></path>
                    <path d="M57.9989687,114 C56.3468546,114 55,112.654746 55,111 C55,109.347318 56.3468546,108 57.9989687,108 C59.655208,108 61,109.347318 61,111 C61,112.654746 59.655208,114 57.9989687,114" id="Fill-15" fill="#82DBE1"></path>
                    <path d="M10.9989687,121 C9.34479202,121 8,119.655208 8,118.001031 C8,116.344792 9.34479202,115 10.9989687,115 C12.655208,115 14,116.344792 14,118.001031 C14,119.655208 12.655208,121 10.9989687,121" id="Fill-17" fill="#82DBE1"></path>
                    <path d="M20.4989852,48 C18.5688605,48 17,46.4291099 17,44.4989852 C17,42.5688605 18.5688605,41 20.4989852,41 C22.4291099,41 24,42.5688605 24,44.4989852 C24,46.4291099 22.4291099,48 20.4989852,48" id="Fill-19" fill="#82DBE1"></path>
                </g>
            </g>
        </g>
    </g>
</svg>
