<svg width="51px" height="51px" viewBox="0 0 51 51" version="1.1" xmlns="http://www.w3.org/2000/svg" xmlns:xlink="http://www.w3.org/1999/xlink">
    <!-- Generator: Sketch 48.2 (47327) - http://www.bohemiancoding.com/sketch -->
    <desc>Created with Sketch.</desc>
    <defs>
        <circle id="path-1" cx="22.5" cy="22.5" r="22.5"></circle>
        <filter x="-10.0%" y="-7.8%" width="124.4%" height="124.4%" filterUnits="objectBoundingBox" id="filter-2">
            <feOffset dx="1" dy="2" in="SourceAlpha" result="shadowOffsetOuter1"></feOffset>
            <feGaussianBlur stdDeviation="1.5" in="shadowOffsetOuter1" result="shadowBlurOuter1"></feGaussianBlur>
            <feColorMatrix values="0 0 0 0 0   0 0 0 0 0   0 0 0 0 0  0 0 0 0.0965523098 0" type="matrix" in="shadowBlurOuter1"></feColorMatrix>
        </filter>
    </defs>
    <g id="Module-02-Templates" stroke="none" stroke-width="1" fill="none" fill-rule="evenodd">
        <g id="Landing-Copy" transform="translate(-268.000000, -1362.000000)">
            <g id="Testimonials-#6" transform="translate(0.000000, 1283.000000)">
                <g id="Icon" transform="translate(270.000000, 80.000000)">
                    <g id="Oval">
                        <use fill="black" fill-opacity="1" filter="url(#filter-2)" xlink:href="#path-1"></use>
                        <use fill="#FFFFFF" fill-rule="evenodd" xlink:href="#path-1"></use>
                    </g>
                    <path d="M12.2984848,23.2206122 C11.3797247,23.2276837 10.6014375,22.676449 10.3144713,21.8160918 C10.3034341,21.7827551 10.293902,21.7504286 10.2847044,21.7179337 C9.9719848,20.6161378 10.5783598,19.4634949 11.6651858,19.0944337 L29.0972128,13.2145408 C29.3090929,13.1534235 29.522478,13.1222755 29.7338564,13.1209286 C30.6770321,13.1135204 31.4767247,13.6768776 31.7707145,14.5554184 L31.7968024,14.6402755 C32.1229003,15.7878673 31.3126723,16.8122143 30.3419037,17.1405306 C30.3412348,17.1410357 30.1646402,17.2011429 13.0065355,23.0992194 C12.7745878,23.1785204 12.5366199,23.2185918 12.2984848,23.2206122 L12.2984848,23.2206122 L12.2984848,23.2206122 Z" id="Shape" fill="#70CADB"></path>
                    <path d="M15.2041014,31.8519643 C14.2781503,31.858699 13.4971875,31.3152092 13.2135659,30.4671429 C13.2028632,30.4348163 13.1926622,30.4023214 13.1834645,30.3696582 C12.866397,29.2547296 13.472103,28.0899643 14.5626081,27.720398 L31.9953041,21.7866276 C32.2205625,21.7108622 32.4531791,21.6721378 32.6871334,21.669949 C33.6155929,21.6628776 34.4313395,22.2339796 34.7191419,23.0916429 L34.7458986,23.1808776 C34.914299,23.773699 34.8147973,24.4399286 34.4800034,24.9657398 C34.2304966,25.3566888 33.4435135,25.7008316 33.4435135,25.7008316 L15.9445946,31.7248469 C15.7007736,31.8068418 15.452103,31.8501122 15.2041014,31.852301 L15.2041014,31.8519643 L15.2041014,31.8519643 Z" id="Shape" fill="#E01765"></path>
                    <path d="M29.7156284,31.8895102 C28.7858311,31.89675 27.9625591,31.3061173 27.666228,30.4208418 L21.8483057,13.0217602 L21.8192078,12.9241071 C21.5039797,11.8145663 22.1101875,10.6572092 23.1966791,10.2884847 C23.4140777,10.2149082 23.6388345,10.1765204 23.8650963,10.1745 C24.201228,10.1719745 24.5264899,10.2482449 24.8328547,10.4006173 C25.3450794,10.6573776 25.7282027,11.0993418 25.9113193,11.6451888 L31.7287399,29.0427551 L31.7456301,29.0986531 C32.072397,30.2506224 31.467527,31.4086531 30.3810355,31.7773776 C30.1658108,31.8496071 29.941723,31.8874898 29.7156284,31.8895102 L29.7156284,31.8895102 L29.7156284,31.8895102 Z" id="Shape" fill="#E8A723"></path>
                    <path d="M21.0676774,34.8201122 C20.1378801,34.827352 19.3139392,34.2367194 19.0174409,33.3502653 L13.2010236,15.9518571 C13.1909899,15.9198673 13.1809561,15.8878776 13.1712568,15.8550459 C12.8568649,14.7458418 13.4612331,13.5883163 14.5473902,13.2192551 C14.7639527,13.1468571 14.9878733,13.1086378 15.2138007,13.1067857 C16.1437652,13.0993776 16.9672044,13.6898418 17.2635355,14.5754541 L23.0801199,31.9745357 C23.0909899,32.0048418 23.1008564,32.0383469 23.1097196,32.0703367 C23.4247804,33.1803827 22.8200777,34.3385816 21.7322483,34.7076429 C21.5161875,34.7802092 21.2926014,34.8180918 21.0670084,34.8199439 L21.0676774,34.8199439 L21.0676774,34.8201122 Z" id="Shape" fill="#3EB890"></path>
                    <polygon id="Shape" fill="#CC2027" points="26.8474713 27.9712653 30.9041301 26.5748265 29.5779983 22.6097755 25.5166571 23.9915663"></polygon>
                    <polygon id="Shape" fill="#361238" points="18.2128986 30.9436224 22.269223 29.547352 20.9330574 25.5519949 16.8727196 26.9342908"></polygon>
                    <polygon id="Shape" fill="#65863A" points="23.9594139 19.3346939 28.0164071 17.9401071 26.7058277 14.0213571 22.6413091 15.3923724"></polygon>
                    <polygon id="Shape" fill="#1A937D" points="15.3238378 22.3030102 19.3808311 20.9084235 18.0541976 16.9396684 13.9896791 18.3105153 15.3238378 22.3030102"></polygon>
                </g>
            </g>
        </g>
    </g>
</svg>
